<svg xmlns="http://www.w3.org/2000/svg" viewBox="0 0 720 220" width="720" height="220" role="img" aria-label="Logo Rico Samba">
  <defs>
    <linearGradient id="gold" x1="0" y1="0" x2="1" y2="1">
      <stop offset="0" stop-color="#E0A64B"/>
      <stop offset="0.5" stop-color="#C89A3C"/>
      <stop offset="1" stop-color="#A85F2A"/>
    </linearGradient>
  </defs>

  <!-- Pandeiro mark -->
  <g transform="translate(110 110)">
    <circle r="86" fill="none" stroke="url(#gold)" stroke-width="6"/>
    <circle r="64" fill="none" stroke="url(#gold)" stroke-width="3" opacity="0.55"/>
    <g fill="url(#gold)">
      <circle cx="0" cy="-102" r="8"/>
      <circle cx="72" cy="-72" r="8"/>
      <circle cx="102" cy="0" r="8"/>
      <circle cx="72" cy="72" r="8"/>
      <circle cx="0" cy="102" r="8"/>
      <circle cx="-72" cy="72" r="8"/>
      <circle cx="-102" cy="0" r="8"/>
      <circle cx="-72" cy="-72" r="8"/>
    </g>
    <path d="M-16 -32v46a14 14 0 1 1-8 -13V-22l28-6v32a14 14 0 1 1-8 -13V-38l-12 2Z" fill="url(#gold)"/>
  </g>

  <!-- Wordmark -->
  <text x="230" y="100" font-family="Georgia, 'Times New Roman', serif" font-weight="700" font-size="72" fill="#F3E9CE">Rico</text>
  <text x="230" y="176" font-family="Georgia, 'Times New Roman', serif" font-weight="700" font-size="72" fill="url(#gold)">Samba</text>
  <text x="234" y="205" font-family="Arial, Helvetica, sans-serif" font-size="16" letter-spacing="6" fill="#D8C39A" opacity="0.7">MÚSICA BRASILEIRA AUTORAL</text>
</svg>
