<svg xmlns="http://www.w3.org/2000/svg" viewBox="0 0 48 48" width="48" height="48" role="img" aria-label="Rico Samba">
  <defs>
    <linearGradient id="g" x1="0" y1="0" x2="1" y2="1">
      <stop offset="0" stop-color="#E0A64B"/>
      <stop offset="1" stop-color="#A85F2A"/>
    </linearGradient>
  </defs>
  <rect width="48" height="48" rx="11" fill="#0E0B0A"/>
  <g stroke="url(#g)" fill="none">
    <circle cx="24" cy="24" r="17" stroke-width="2"/>
    <circle cx="24" cy="24" r="12.5" stroke-width="1.2" opacity="0.55"/>
  </g>
  <g fill="url(#g)">
    <circle cx="24" cy="8.5" r="1.7"/>
    <circle cx="35" cy="13" r="1.7"/>
    <circle cx="39.5" cy="24" r="1.7"/>
    <circle cx="35" cy="35" r="1.7"/>
    <circle cx="24" cy="39.5" r="1.7"/>
    <circle cx="13" cy="35" r="1.7"/>
    <circle cx="8.5" cy="24" r="1.7"/>
    <circle cx="13" cy="13" r="1.7"/>
  </g>
  <path d="M22 16.5v11.2a3.4 3.4 0 1 1-2-3.1V18l7-1.6v7.9a3.4 3.4 0 1 1-2-3.1v-6.3l-3 .6Z" fill="url(#g)"/>
</svg>
